<?xml version="1.0" standalone="no"?>
<!DOCTYPE svg PUBLIC "-//W3C//DTD SVG 20010904//EN"
 "http://www.w3.org/TR/2001/REC-SVG-20010904/DTD/svg10.dtd">
<svg version="1.0" xmlns="http://www.w3.org/2000/svg"
 width="512.000000pt" height="512.000000pt" viewBox="0 0 512.000000 512.000000"
 preserveAspectRatio="xMidYMid meet">

<g transform="translate(0.000000,512.000000) scale(0.100000,-0.100000)"
fill="#000000" stroke="none">
<path d="M4253 5105 c-64 -21 -117 -62 -243 -189 l-115 -116 453 -452 452
-453 116 115 c63 63 129 134 145 158 66 93 75 209 25 319 -23 48 -69 99 -284
315 -218 217 -267 261 -316 284 -71 32 -169 40 -233 19z"/>
<path d="M2622 3597 l-902 -902 453 -453 452 -452 905 905 905 905 -450 450
c-247 247 -452 450 -455 450 -3 0 -411 -406 -908 -903z"/>
<path d="M455 4150 c-194 -39 -354 -179 -427 -373 l-23 -62 -3 -1595 c-2
-1121 0 -1614 8 -1660 17 -99 77 -214 150 -288 70 -70 121 -103 219 -141 l66
-26 1595 -3 c1121 -2 1614 0 1660 8 97 16 216 78 288 149 67 66 103 122 141
220 l26 66 3 1210 2 1210 -320 -320 -320 -320 0 -792 0 -793 -1440 0 -1440 0
0 1440 0 1440 728 0 727 0 320 320 320 320 -1120 -1 c-616 -1 -1138 -5 -1160
-9z"/>
<path d="M1327 1829 c-87 -348 -156 -633 -155 -635 3 -3 1225 300 1258 312 9
3 -146 165 -460 479 -261 261 -477 475 -480 475 -3 0 -76 -284 -163 -631z"/>
</g>
</svg>
